<svg width="512" height="512"
  xmlns="http://www.w3.org/2000/svg" enable-background="new 0 0 64 64">
  <g>
    <title>Layer 1</title>
    <circle fill="#fff" r="164.5" cy="255.00001" cx="262.5"/>
    <path fill="#8e24aa" d="m256.50001,2c-140.55187,0 -254.50001,113.71579 -254.50001,253.99999c0,140.28419 113.94814,253.99999 254.50001,253.99999s254.50001,-113.72426 254.50001,-253.99999c0,-140.28419 -113.94814,-253.99999 -254.50001,-253.99999m75.95129,361.34038c-17.38235,14.8336 -41.93312,22.24193 -73.66927,22.24193c-32.40633,0 -57.90724,-7.30673 -76.46877,-21.91173c-18.57002,-14.62193 -27.85078,-34.6964 -27.85078,-60.25726l49.09305,0c1.59487,11.2268 4.72522,19.6088 9.37408,25.1714c8.53423,10.11767 23.13405,15.1638 43.8249,15.1638c12.39415,0 22.4469,-1.3208 30.17522,-4.00473c14.67617,-5.11387 22.00577,-14.605 22.00577,-28.49033c0,-8.1026 -3.59693,-14.38487 -10.77383,-18.83833c-7.19387,-4.33493 -18.58698,-8.17033 -34.17935,-11.48927l-26.64615,-5.83353c-26.19653,-5.7912 -44.18968,-12.05653 -53.97945,-18.82987c-16.60188,-11.33687 -24.8901,-29.0576 -24.8901,-53.17066c0,-22.00487 8.11855,-40.27593 24.33868,-54.83013c16.22013,-14.56267 40.06678,-21.83553 71.5145,-21.83553c26.2644,0 48.64343,6.858 67.20497,20.58247c18.5276,13.72447 28.2495,33.64653 29.1657,59.75773l-49.44087,0c-0.90772,-14.77433 -7.52472,-25.273 -19.851,-31.50447c-8.22035,-4.10633 -18.44277,-6.1722 -30.65028,-6.1722c-13.5903,0 -24.42352,2.667 -32.5251,8.001s-12.1651,12.7762 -12.1651,22.33507c0,8.77993 3.99565,15.33313 11.99543,19.6596c5.12393,2.8956 16.02502,6.28227 32.70325,10.16847l43.19713,10.16847c18.91783,4.43653 33.11893,10.3886 42.56937,17.82233c14.66768,11.557 22.00577,28.28713 22.00577,50.165c0,22.44513 -8.67845,41.0972 -26.07777,55.9308"/>
  </g>
</svg>